<svg width="65" height="50" viewBox="0 0 65 50" fill="none" xmlns="http://www.w3.org/2000/svg">
<path d="M1 12.4728L63 12.4728" stroke="white" stroke-width="2"/>
<path d="M54.1742 0H10.8348C4.84859 0 0 4.78418 0 10.6909V38.3091C0 44.2158 4.84859 49 10.8348 49H21.8412V44.9909H10.7536C7.0607 44.9909 4.06306 42.0331 4.06306 38.3893V10.6107C4.06306 6.96691 7.0607 4.00909 10.7536 4.00909H54.2555C57.9483 4.00909 60.946 6.96691 60.946 10.6107V38.3893C60.946 42.0331 57.9483 44.9909 54.2555 44.9909H49.3617V48.9822C49.4069 48.9822 49.452 48.9911 49.4972 49H54.1652C60.1514 49 65 44.2158 65 38.3091V10.6909C65 4.78418 60.1514 0 54.1652 0H54.1742Z" fill="white"/>
<path d="M49.6227 49.0233C49.6227 49.0233 49.6765 49.0233 49.7034 49.0323V45C48.7352 45.153 48 46.0351 48 47.0431C48 48.0512 48.6993 48.8343 49.6227 49.0143V49.0233Z" fill="white"/>
<path d="M23.2744 47.0289C23.2744 46.0568 22.593 45.1477 21.6875 44.9497V49C22.593 48.802 23.2744 47.9919 23.2744 47.0289Z" fill="white"/>
<rect x="13.5" y="18.4272" width="23" height="22.8364" rx="11.4182" stroke="white" stroke-width="3"/>
<path fill-rule="evenodd" clip-rule="evenodd" d="M24.825 22.2727C25.2731 22.2727 25.6789 22.4716 25.9728 22.7933C25.9842 22.8057 25.9954 22.8184 26.0065 22.8312C26.2663 23.1328 26.4312 23.5339 26.4485 23.9769L26.449 23.9918C26.4497 24.0126 26.45 24.0335 26.45 24.0545V24.0647C26.45 24.0937 26.4661 24.1197 26.4905 24.1308C26.5149 24.1419 26.543 24.1359 26.5617 24.1154L26.5683 24.1082C26.5818 24.0934 26.5955 24.0789 26.6094 24.0647L26.6194 24.0545C26.9173 23.7547 27.2926 23.5989 27.6708 23.5871C27.6869 23.5866 27.703 23.5863 27.7191 23.5864C28.1344 23.5868 28.5495 23.7608 28.8664 24.1082L29.326 24.6122C29.6429 24.9597 29.8015 25.4149 29.802 25.8703C29.802 25.8879 29.8017 25.9055 29.8013 25.9232C29.7905 26.3379 29.6484 26.7493 29.375 27.076L29.3657 27.087C29.3528 27.1022 29.3395 27.1173 29.326 27.1321L29.3194 27.1393C29.3008 27.1598 29.2953 27.1906 29.3054 27.2174C29.3156 27.2442 29.3393 27.2618 29.3657 27.2618H29.375C29.3941 27.2618 29.4132 27.2622 29.4322 27.2629L29.4458 27.2635C29.8498 27.2824 30.2156 27.4632 30.4907 27.7481C30.5024 27.7602 30.5139 27.7725 30.5253 27.785C30.8186 28.1074 31 28.5523 31 29.0436V29.7563C31 30.2477 30.8186 30.6926 30.5253 31.0149C30.5139 31.0274 30.5024 31.0397 30.4907 31.0518C30.2156 31.3368 29.8498 31.5175 29.4458 31.5365L29.4322 31.5371C29.4132 31.5378 29.3941 31.5382 29.375 31.5382H29.3657C29.3393 31.5382 29.3156 31.5558 29.3054 31.5825C29.2953 31.6093 29.3008 31.6402 29.3194 31.6607L29.326 31.6679C29.3395 31.6827 29.3528 31.6977 29.3657 31.7129L29.375 31.7239C29.6484 32.0506 29.7905 32.462 29.8013 32.8768C29.8017 32.8944 29.802 32.9121 29.802 32.9297C29.8015 33.3851 29.6429 33.8403 29.326 34.1877L28.8664 34.6917C28.5495 35.0391 28.1344 35.2131 27.7191 35.2136C27.703 35.2136 27.6869 35.2134 27.6708 35.2129C27.2926 35.2011 26.9174 35.0452 26.6194 34.7454L26.6094 34.7353C26.5955 34.7211 26.5818 34.7065 26.5683 34.6917L26.5617 34.6845C26.543 34.664 26.5149 34.658 26.4905 34.6692C26.4661 34.6803 26.45 34.7063 26.45 34.7353V34.7454C26.45 34.7664 26.4497 34.7873 26.449 34.8081L26.4485 34.8231C26.4312 35.2661 26.2663 35.6671 26.0065 35.9688C25.9954 35.9816 25.9842 35.9942 25.9728 36.0067C25.6789 36.3284 25.2731 36.5273 24.825 36.5273H24.175C23.7269 36.5273 23.3211 36.3284 23.0272 36.0067C23.0158 35.9942 23.0046 35.9816 22.9935 35.9688C22.7337 35.6671 22.5688 35.2661 22.5515 34.8231L22.551 34.8081C22.5503 34.7873 22.55 34.7664 22.55 34.7454V34.7353C22.55 34.7063 22.5339 34.6803 22.5095 34.6692C22.4851 34.658 22.457 34.664 22.4383 34.6845L22.4317 34.6917C22.4182 34.7065 22.4045 34.7211 22.3906 34.7353L22.3806 34.7454C22.0826 35.0452 21.7074 35.2011 21.3292 35.2129C21.3131 35.2134 21.297 35.2136 21.2809 35.2136C20.8656 35.2131 20.4505 35.0391 20.1336 34.6917L19.674 34.1877C19.3571 33.8403 19.1985 33.3851 19.198 32.9297C19.198 32.9121 19.1983 32.8944 19.1987 32.8768C19.2095 32.462 19.3516 32.0506 19.625 31.7239L19.6343 31.7129C19.6472 31.6977 19.6605 31.6827 19.674 31.6679L19.6806 31.6607C19.6992 31.6402 19.7047 31.6093 19.6946 31.5825C19.6844 31.5558 19.6607 31.5382 19.6343 31.5382H19.625C19.6059 31.5382 19.5868 31.5378 19.5678 31.5371L19.5542 31.5365C19.1502 31.5175 18.7844 31.3368 18.5093 31.0518C18.4976 31.0397 18.4861 31.0274 18.4747 31.0149C18.1814 30.6926 18 30.2477 18 29.7563V29.0436C18 28.5523 18.1814 28.1074 18.4747 27.785C18.4861 27.7725 18.4976 27.7602 18.5093 27.7481C18.7844 27.4632 19.1502 27.2824 19.5542 27.2635L19.5678 27.2629C19.5868 27.2622 19.6059 27.2618 19.625 27.2618H19.6343C19.6607 27.2618 19.6844 27.2442 19.6946 27.2174C19.7047 27.1906 19.6992 27.1598 19.6806 27.1393L19.674 27.1321C19.6605 27.1173 19.6472 27.1022 19.6343 27.087L19.625 27.076C19.3516 26.7493 19.2095 26.3379 19.1987 25.9232C19.1983 25.9055 19.198 25.8879 19.198 25.8703C19.1985 25.4149 19.3571 24.9597 19.674 24.6122L20.1336 24.1082C20.4505 23.7608 20.8656 23.5868 21.2809 23.5864C21.297 23.5863 21.3131 23.5866 21.3292 23.5871C21.7074 23.5989 22.0826 23.7547 22.3806 24.0545L22.3906 24.0647C22.4045 24.0789 22.4182 24.0934 22.4317 24.1082L22.4383 24.1154C22.457 24.1359 22.4851 24.1419 22.5095 24.1308C22.5339 24.1197 22.55 24.0937 22.55 24.0647V24.0545C22.55 24.0335 22.5503 24.0126 22.551 23.9918L22.5515 23.9769C22.5688 23.5339 22.7337 23.1328 22.9935 22.8312C23.0046 22.8184 23.0158 22.8057 23.0272 22.7933C23.3211 22.4716 23.7269 22.2727 24.175 22.2727H24.825ZM23.85 34.7454C23.85 34.9422 23.9955 35.1018 24.175 35.1018H24.825C25.0045 35.1018 25.15 34.9422 25.15 34.7454V34.7353C25.15 34.1226 25.4888 33.5815 25.9925 33.3524C26.4973 33.1229 27.0861 33.2436 27.481 33.6766L27.4875 33.6838C27.6144 33.8229 27.8202 33.8229 27.9471 33.6838L28.4068 33.1798C28.5337 33.0406 28.5337 32.815 28.4068 32.6758L28.4002 32.6686C28.0054 32.2357 27.8953 31.59 28.1046 31.0365C28.3135 30.4842 28.807 30.1127 29.3657 30.1127H29.375C29.5545 30.1127 29.7 29.9532 29.7 29.7563V29.0436C29.7 28.8468 29.5545 28.6873 29.375 28.6873H29.3657C28.807 28.6873 28.3135 28.3158 28.1046 27.7635C27.8953 27.21 28.0054 26.5643 28.4002 26.1313L28.4068 26.1241C28.5337 25.985 28.5337 25.7593 28.4068 25.6202L27.9471 25.1162C27.8202 24.977 27.6144 24.977 27.4875 25.1162L27.481 25.1234C27.0861 25.5563 26.4973 25.6771 25.9925 25.4475C25.4888 25.2185 25.15 24.6773 25.15 24.0647V24.0545C25.15 23.8577 25.0045 23.6982 24.825 23.6982H24.175C23.9955 23.6982 23.85 23.8577 23.85 24.0545V24.0647C23.85 24.6773 23.5112 25.2185 23.0075 25.4475C22.5027 25.6771 21.9139 25.5563 21.519 25.1234L21.5125 25.1162C21.3856 24.977 21.1798 24.977 21.0529 25.1162L20.5932 25.6202C20.4663 25.7593 20.4663 25.985 20.5932 26.1241L20.5998 26.1313C20.9946 26.5643 21.1047 27.21 20.8954 27.7635C20.6865 28.3158 20.193 28.6873 19.6343 28.6873H19.625C19.4455 28.6873 19.3 28.8468 19.3 29.0436V29.7563C19.3 29.9532 19.4455 30.1127 19.625 30.1127H19.6343C20.193 30.1127 20.6865 30.4842 20.8954 31.0365C21.1047 31.59 20.9946 32.2357 20.5998 32.6686L20.5932 32.6758C20.4663 32.815 20.4663 33.0406 20.5932 33.1798L21.0529 33.6838C21.1798 33.8229 21.3856 33.8229 21.5125 33.6838L21.519 33.6766C21.9139 33.2436 22.5027 33.1229 23.0075 33.3524C23.5112 33.5815 23.85 34.1226 23.85 34.7353V34.7454Z" fill="white"/>
<path fill-rule="evenodd" clip-rule="evenodd" d="M24.5 31.4046C25.1904 31.4046 25.75 30.7065 25.75 29.8455C25.75 28.9844 25.1904 28.2864 24.5 28.2864C23.8096 28.2864 23.25 28.9844 23.25 29.8455C23.25 30.7065 23.8096 31.4046 24.5 31.4046ZM24.5 32.9637C25.8807 32.9637 27 31.5676 27 29.8455C27 28.1234 25.8807 26.7273 24.5 26.7273C23.1193 26.7273 22 28.1234 22 29.8455C22 31.5676 23.1193 32.9637 24.5 32.9637Z" fill="white"/>
<rect width="3.63298" height="13.2223" rx="1.81649" transform="matrix(0.744399 -0.667735 0.664822 0.747002 31.3789 38.825)" fill="white"/>
<path d="M40 8.01815C40 9.00222 39.5523 9.79996 39 9.79996C38.4477 9.79996 38 9.00222 38 8.01815C38 7.03408 38.4477 6.23633 39 6.23633C39.5523 6.23633 40 7.03408 40 8.01815Z" fill="white"/>
<path d="M55 8.01815C55 9.00222 54.3284 9.79996 53.5 9.79996C52.6716 9.79996 52 9.00222 52 8.01815C52 7.03408 52.6716 6.23633 53.5 6.23633C54.3284 6.23633 55 7.03408 55 8.01815Z" fill="white"/>
<ellipse cx="46.5" cy="8.01815" rx="1.5" ry="1.78182" fill="white"/>
<path d="M1 12.4728L63 12.4728" stroke="white" stroke-width="2"/>
<path d="M54.1742 0H10.8348C4.84859 0 0 4.78418 0 10.6909V38.3091C0 44.2158 4.84859 49 10.8348 49H21.8412V44.9909H10.7536C7.0607 44.9909 4.06306 42.0331 4.06306 38.3893V10.6107C4.06306 6.96691 7.0607 4.00909 10.7536 4.00909H54.2555C57.9483 4.00909 60.946 6.96691 60.946 10.6107V38.3893C60.946 42.0331 57.9483 44.9909 54.2555 44.9909H49.3617V48.9822C49.4069 48.9822 49.452 48.9911 49.4972 49H54.1652C60.1514 49 65 44.2158 65 38.3091V10.6909C65 4.78418 60.1514 0 54.1652 0H54.1742Z" fill="white"/>
<rect x="13.5" y="18.4272" width="23" height="22.8364" rx="11.4182" stroke="white" stroke-width="3"/>
<path fill-rule="evenodd" clip-rule="evenodd" d="M24.825 22.2727C25.2731 22.2727 25.6789 22.4716 25.9728 22.7933C25.9842 22.8057 25.9954 22.8184 26.0065 22.8312C26.2663 23.1328 26.4312 23.5339 26.4485 23.9769L26.449 23.9918C26.4497 24.0126 26.45 24.0335 26.45 24.0545V24.0647C26.45 24.0937 26.4661 24.1197 26.4905 24.1308C26.5149 24.1419 26.543 24.1359 26.5617 24.1154L26.5683 24.1082C26.5818 24.0934 26.5955 24.0789 26.6094 24.0647L26.6194 24.0545C26.9173 23.7547 27.2926 23.5989 27.6708 23.5871C27.6869 23.5866 27.703 23.5863 27.7191 23.5864C28.1344 23.5868 28.5495 23.7608 28.8664 24.1082L29.326 24.6122C29.6429 24.9597 29.8015 25.4149 29.802 25.8703C29.802 25.8879 29.8017 25.9055 29.8013 25.9232C29.7905 26.3379 29.6484 26.7493 29.375 27.076L29.3657 27.087C29.3528 27.1022 29.3395 27.1173 29.326 27.1321L29.3194 27.1393C29.3008 27.1598 29.2953 27.1906 29.3054 27.2174C29.3156 27.2442 29.3393 27.2618 29.3657 27.2618H29.375C29.3941 27.2618 29.4132 27.2622 29.4322 27.2629L29.4458 27.2635C29.8498 27.2824 30.2156 27.4632 30.4907 27.7481C30.5024 27.7602 30.5139 27.7725 30.5253 27.785C30.8186 28.1074 31 28.5523 31 29.0436V29.7563C31 30.2477 30.8186 30.6926 30.5253 31.0149C30.5139 31.0274 30.5024 31.0397 30.4907 31.0518C30.2156 31.3368 29.8498 31.5175 29.4458 31.5365L29.4322 31.5371C29.4132 31.5378 29.3941 31.5382 29.375 31.5382H29.3657C29.3393 31.5382 29.3156 31.5558 29.3054 31.5825C29.2953 31.6093 29.3008 31.6402 29.3194 31.6607L29.326 31.6679C29.3395 31.6827 29.3528 31.6977 29.3657 31.7129L29.375 31.7239C29.6484 32.0506 29.7905 32.462 29.8013 32.8768C29.8017 32.8944 29.802 32.9121 29.802 32.9297C29.8015 33.3851 29.6429 33.8403 29.326 34.1877L28.8664 34.6917C28.5495 35.0391 28.1344 35.2131 27.7191 35.2136C27.703 35.2136 27.6869 35.2134 27.6708 35.2129C27.2926 35.2011 26.9174 35.0452 26.6194 34.7454L26.6094 34.7353C26.5955 34.7211 26.5818 34.7065 26.5683 34.6917L26.5617 34.6845C26.543 34.664 26.5149 34.658 26.4905 34.6692C26.4661 34.6803 26.45 34.7063 26.45 34.7353V34.7454C26.45 34.7664 26.4497 34.7873 26.449 34.8081L26.4485 34.8231C26.4312 35.2661 26.2663 35.6671 26.0065 35.9688C25.9954 35.9816 25.9842 35.9942 25.9728 36.0067C25.6789 36.3284 25.2731 36.5273 24.825 36.5273H24.175C23.7269 36.5273 23.3211 36.3284 23.0272 36.0067C23.0158 35.9942 23.0046 35.9816 22.9935 35.9688C22.7337 35.6671 22.5688 35.2661 22.5515 34.8231L22.551 34.8081C22.5503 34.7873 22.55 34.7664 22.55 34.7454V34.7353C22.55 34.7063 22.5339 34.6803 22.5095 34.6692C22.4851 34.658 22.457 34.664 22.4383 34.6845L22.4317 34.6917C22.4182 34.7065 22.4045 34.7211 22.3906 34.7353L22.3806 34.7454C22.0826 35.0452 21.7074 35.2011 21.3292 35.2129C21.3131 35.2134 21.297 35.2136 21.2809 35.2136C20.8656 35.2131 20.4505 35.0391 20.1336 34.6917L19.674 34.1877C19.3571 33.8403 19.1985 33.3851 19.198 32.9297C19.198 32.9121 19.1983 32.8944 19.1987 32.8768C19.2095 32.462 19.3516 32.0506 19.625 31.7239L19.6343 31.7129C19.6472 31.6977 19.6605 31.6827 19.674 31.6679L19.6806 31.6607C19.6992 31.6402 19.7047 31.6093 19.6946 31.5825C19.6844 31.5558 19.6607 31.5382 19.6343 31.5382H19.625C19.6059 31.5382 19.5868 31.5378 19.5678 31.5371L19.5542 31.5365C19.1502 31.5175 18.7844 31.3368 18.5093 31.0518C18.4976 31.0397 18.4861 31.0274 18.4747 31.0149C18.1814 30.6926 18 30.2477 18 29.7563V29.0436C18 28.5523 18.1814 28.1074 18.4747 27.785C18.4861 27.7725 18.4976 27.7602 18.5093 27.7481C18.7844 27.4632 19.1502 27.2824 19.5542 27.2635L19.5678 27.2629C19.5868 27.2622 19.6059 27.2618 19.625 27.2618H19.6343C19.6607 27.2618 19.6844 27.2442 19.6946 27.2174C19.7047 27.1906 19.6992 27.1598 19.6806 27.1393L19.674 27.1321C19.6605 27.1173 19.6472 27.1022 19.6343 27.087L19.625 27.076C19.3516 26.7493 19.2095 26.3379 19.1987 25.9232C19.1983 25.9055 19.198 25.8879 19.198 25.8703C19.1985 25.4149 19.3571 24.9597 19.674 24.6122L20.1336 24.1082C20.4505 23.7608 20.8656 23.5868 21.2809 23.5864C21.297 23.5863 21.3131 23.5866 21.3292 23.5871C21.7074 23.5989 22.0826 23.7547 22.3806 24.0545L22.3906 24.0647C22.4045 24.0789 22.4182 24.0934 22.4317 24.1082L22.4383 24.1154C22.457 24.1359 22.4851 24.1419 22.5095 24.1308C22.5339 24.1197 22.55 24.0937 22.55 24.0647V24.0545C22.55 24.0335 22.5503 24.0126 22.551 23.9918L22.5515 23.9769C22.5688 23.5339 22.7337 23.1328 22.9935 22.8312C23.0046 22.8184 23.0158 22.8057 23.0272 22.7933C23.3211 22.4716 23.7269 22.2727 24.175 22.2727H24.825ZM23.85 34.7454C23.85 34.9422 23.9955 35.1018 24.175 35.1018H24.825C25.0045 35.1018 25.15 34.9422 25.15 34.7454V34.7353C25.15 34.1226 25.4888 33.5815 25.9925 33.3524C26.4973 33.1229 27.0861 33.2436 27.481 33.6766L27.4875 33.6838C27.6144 33.8229 27.8202 33.8229 27.9471 33.6838L28.4068 33.1798C28.5337 33.0406 28.5337 32.815 28.4068 32.6758L28.4002 32.6686C28.0054 32.2357 27.8953 31.59 28.1046 31.0365C28.3135 30.4842 28.807 30.1127 29.3657 30.1127H29.375C29.5545 30.1127 29.7 29.9532 29.7 29.7563V29.0436C29.7 28.8468 29.5545 28.6873 29.375 28.6873H29.3657C28.807 28.6873 28.3135 28.3158 28.1046 27.7635C27.8953 27.21 28.0054 26.5643 28.4002 26.1313L28.4068 26.1241C28.5337 25.985 28.5337 25.7593 28.4068 25.6202L27.9471 25.1162C27.8202 24.977 27.6144 24.977 27.4875 25.1162L27.481 25.1234C27.0861 25.5563 26.4973 25.6771 25.9925 25.4475C25.4888 25.2185 25.15 24.6773 25.15 24.0647V24.0545C25.15 23.8577 25.0045 23.6982 24.825 23.6982H24.175C23.9955 23.6982 23.85 23.8577 23.85 24.0545V24.0647C23.85 24.6773 23.5112 25.2185 23.0075 25.4475C22.5027 25.6771 21.9139 25.5563 21.519 25.1234L21.5125 25.1162C21.3856 24.977 21.1798 24.977 21.0529 25.1162L20.5932 25.6202C20.4663 25.7593 20.4663 25.985 20.5932 26.1241L20.5998 26.1313C20.9946 26.5643 21.1047 27.21 20.8954 27.7635C20.6865 28.3158 20.193 28.6873 19.6343 28.6873H19.625C19.4455 28.6873 19.3 28.8468 19.3 29.0436V29.7563C19.3 29.9532 19.4455 30.1127 19.625 30.1127H19.6343C20.193 30.1127 20.6865 30.4842 20.8954 31.0365C21.1047 31.59 20.9946 32.2357 20.5998 32.6686L20.5932 32.6758C20.4663 32.815 20.4663 33.0406 20.5932 33.1798L21.0529 33.6838C21.1798 33.8229 21.3856 33.8229 21.5125 33.6838L21.519 33.6766C21.9139 33.2436 22.5027 33.1229 23.0075 33.3524C23.5112 33.5815 23.85 34.1226 23.85 34.7353V34.7454Z" fill="white"/>
<path fill-rule="evenodd" clip-rule="evenodd" d="M24.5 31.4046C25.1904 31.4046 25.75 30.7065 25.75 29.8455C25.75 28.9844 25.1904 28.2864 24.5 28.2864C23.8096 28.2864 23.25 28.9844 23.25 29.8455C23.25 30.7065 23.8096 31.4046 24.5 31.4046ZM24.5 32.9637C25.8807 32.9637 27 31.5676 27 29.8455C27 28.1234 25.8807 26.7273 24.5 26.7273C23.1193 26.7273 22 28.1234 22 29.8455C22 31.5676 23.1193 32.9637 24.5 32.9637Z" fill="white"/>
<rect width="3.63298" height="13.2223" rx="1.81649" transform="matrix(0.744399 -0.667735 0.664822 0.747002 31.3789 38.825)" fill="white"/>
<path d="M40 8.01815C40 9.00222 39.5523 9.79996 39 9.79996C38.4477 9.79996 38 9.00222 38 8.01815C38 7.03408 38.4477 6.23633 39 6.23633C39.5523 6.23633 40 7.03408 40 8.01815Z" fill="white"/>
<path d="M55 8.01815C55 9.00222 54.3284 9.79996 53.5 9.79996C52.6716 9.79996 52 9.00222 52 8.01815C52 7.03408 52.6716 6.23633 53.5 6.23633C54.3284 6.23633 55 7.03408 55 8.01815Z" fill="white"/>
<ellipse cx="46.5" cy="8.01815" rx="1.5" ry="1.78182" fill="white"/>
</svg>
